<?xml version="1.0" standalone="no"?>
<!DOCTYPE svg PUBLIC "-//W3C//DTD SVG 20010904//EN"
 "http://www.w3.org/TR/2001/REC-SVG-20010904/DTD/svg10.dtd">
<svg version="1.0" xmlns="http://www.w3.org/2000/svg"
 width="1280.000000pt" height="1152.000000pt" viewBox="0 0 1280.000000 1152.000000"
 preserveAspectRatio="xMidYMid meet">
<metadata>
Created by potrace 1.15, written by Peter Selinger 2001-2017
</metadata>
<g transform="translate(0.000000,1152.000000) scale(0.100000,-0.100000)"
fill="#000000" stroke="none">
<path d="M10409 11404 c-68 -65 -140 -133 -159 -150 l-35 -33 -98 34 -99 33
-15 -36 c-99 -239 -176 -418 -182 -424 -4 -5 -101 -26 -216 -48 -115 -22 -210
-41 -210 -43 -1 -1 -21 -79 -45 -174 -40 -164 -43 -172 -69 -177 -29 -7 -298
-46 -310 -46 -5 0 -78 54 -162 120 l-154 120 -677 0 c-675 0 -676 0 -671 20 3
11 26 43 50 70 40 44 44 53 32 68 -7 9 -14 19 -16 21 -1 2 -24 -16 -52 -40
-40 -34 -53 -54 -63 -91 l-12 -48 -1810 -2 c-996 -2 -2080 -3 -2409 -3 l-597
0 0 -817 0 -818 -385 0 -385 0 0 -1723 c0 -948 -3 -1726 -6 -1730 -3 -3 -27 2
-53 12 -25 10 -86 24 -136 31 -85 12 -93 11 -150 -9 -136 -51 -163 -55 -226
-36 -32 10 -68 15 -82 11 -14 -3 -57 -36 -96 -73 -82 -78 -89 -102 -41 -148
29 -28 30 -32 27 -98 -3 -59 -7 -72 -31 -94 -21 -19 -26 -31 -22 -49 5 -17 2
-24 -8 -24 -8 0 -37 -18 -65 -40 -44 -35 -51 -45 -51 -76 0 -30 -4 -37 -30
-46 -47 -16 -53 -38 -30 -98 l20 -51 -24 -9 c-13 -5 -64 -21 -113 -35 -48 -15
-94 -34 -100 -43 -19 -24 -15 -58 8 -74 19 -12 20 -18 11 -51 -7 -23 -7 -39
-1 -43 5 -3 7 -21 3 -40 -8 -43 16 -74 57 -74 21 0 28 -5 31 -22 5 -32 -11
-78 -28 -78 -8 0 -22 -9 -31 -20 -10 -11 -29 -20 -44 -20 -14 0 -34 -9 -44
-20 -10 -11 -24 -20 -31 -20 -7 0 -17 -8 -23 -17 -5 -10 -15 -18 -23 -18 -7 0
-44 -33 -82 -73 -68 -70 -69 -73 -49 -87 13 -9 19 -22 16 -37 -3 -14 5 -36 21
-58 36 -49 57 -96 50 -114 -3 -8 9 -31 30 -54 20 -22 36 -47 36 -55 0 -9 -20
-33 -44 -53 -25 -21 -50 -50 -57 -66 -7 -17 -19 -28 -31 -28 -11 0 -26 -7 -35
-15 -8 -8 -19 -12 -25 -9 -13 8 -79 -63 -94 -101 -7 -16 -24 -58 -39 -93 l-26
-64 32 -68 c41 -89 59 -94 179 -52 51 18 80 39 80 59 0 9 11 6 37 -10 21 -13
61 -29 88 -36 73 -17 81 -24 67 -56 -7 -14 -12 -34 -12 -43 0 -9 -14 -30 -31
-47 -32 -29 -32 -29 -10 -43 14 -10 21 -25 21 -47 0 -18 6 -38 14 -44 19 -16
28 -62 30 -146 2 -64 4 -70 21 -67 11 2 39 6 63 9 l43 5 -7 -28 c-4 -16 -13
-42 -20 -59 -25 -61 -44 -181 -35 -228 11 -59 56 -115 103 -127 21 -6 45 -22
57 -39 19 -26 24 -27 76 -23 l56 5 -6 -36 c-6 -30 -4 -37 15 -47 19 -10 21
-18 17 -63 -2 -29 -21 -91 -41 -139 -20 -48 -36 -98 -36 -111 0 -13 15 -37 35
-57 19 -19 35 -42 35 -51 0 -10 19 -33 42 -51 23 -18 60 -52 82 -75 23 -23 60
-57 84 -75 31 -24 80 -93 182 -256 l140 -223 12 -95 c11 -93 11 -95 -13 -120
-28 -30 -32 -82 -16 -180 9 -55 8 -66 -12 -108 -21 -43 -25 -46 -62 -46 -38 0
-39 0 -55 -57 -11 -39 -14 -65 -8 -82 11 -30 43 -40 56 -17 17 30 33 17 34
-26 1 -33 -5 -51 -26 -78 -47 -60 -20 -131 32 -83 18 16 21 16 50 -1 25 -15
56 -19 162 -21 72 -2 143 -8 159 -14 15 -6 55 -8 88 -6 49 4 70 12 108 38 25
19 70 47 100 63 30 16 74 48 99 72 44 43 44 44 37 90 -10 59 -8 204 4 234 5
13 36 55 68 94 70 83 79 110 58 160 -8 20 -15 46 -15 58 0 29 30 75 76 116
112 101 142 136 154 179 6 24 9 55 5 68 -3 15 0 34 10 49 14 22 21 24 93 22
63 -1 96 5 177 32 84 27 115 33 195 33 106 1 178 -15 187 -41 24 -75 63 -132
140 -206 94 -90 105 -106 123 -186 7 -30 22 -72 34 -93 21 -39 88 -87 121 -87
9 0 56 -9 104 -21 101 -24 118 -23 296 31 197 59 246 65 400 50 71 -8 163 -13
202 -13 l73 1 57 -94 58 -94 55 -1 c126 -3 426 -17 441 -20 11 -3 64 50 159
156 l142 160 172 5 171 5 0 110 0 109 155 89 c85 48 165 93 176 99 19 9 47 -7
216 -120 107 -71 243 -169 302 -217 67 -53 114 -84 123 -81 8 3 92 6 188 6
l172 0 214 240 c172 193 220 254 245 308 42 91 102 164 166 200 29 17 99 78
156 135 l104 104 -17 39 c-28 65 -49 212 -50 336 l0 117 -105 100 -105 100
241 1 241 0 6 34 c3 19 3 69 0 110 l-6 76 192 0 c146 0 191 -3 191 -12 0 -7
-5 -68 -9 -134 -8 -101 -15 -134 -41 -200 -43 -105 -45 -180 -7 -282 15 -40
27 -91 27 -112 0 -21 9 -87 21 -146 13 -70 19 -135 17 -187 l-3 -80 55 -12
c100 -20 170 -69 252 -173 28 -37 82 -99 120 -139 102 -109 120 -141 124 -219
4 -54 -1 -82 -26 -154 -55 -161 -33 -235 83 -273 l47 -16 0 34 c0 37 39 190
64 247 8 20 20 58 26 85 8 36 21 57 51 85 32 29 39 42 34 58 -4 13 -1 28 8 38
13 15 12 31 -10 145 l-25 129 35 51 c19 29 42 67 51 84 18 36 113 113 139 113
26 0 147 -93 153 -117 l6 -23 29 21 c16 11 29 27 29 34 0 8 20 31 45 52 48 40
54 56 30 79 -21 21 -19 41 10 118 30 80 31 90 5 114 -20 18 -20 19 21 118 64
157 63 153 50 180 -15 34 -14 81 4 142 18 59 24 65 84 72 40 4 46 8 53 37 5
18 22 41 38 53 21 15 30 30 30 50 0 45 17 79 45 90 18 7 25 17 25 36 0 15 17
54 39 88 21 34 52 89 69 123 23 45 39 63 61 71 22 8 30 18 33 39 3 24 8 28 38
31 19 1 77 12 128 24 89 20 95 20 122 4 28 -16 29 -16 41 6 7 12 15 88 19 168
11 214 37 299 134 433 45 63 56 86 56 117 0 25 12 62 31 99 31 59 31 60 15
103 -17 43 -16 45 13 133 16 50 36 106 44 125 14 32 11 62 -30 382 l-46 347
36 41 c44 52 67 99 67 138 0 29 21 62 40 62 5 0 6 15 4 33 -3 17 2 52 10 76 9
24 16 59 16 78 0 27 10 46 43 83 32 36 48 66 66 126 35 113 82 227 100 240 11
9 15 30 14 85 -1 63 -5 76 -22 88 -32 21 -30 114 5 164 60 89 85 197 48 211
-14 5 -14 8 0 27 13 19 13 26 1 49 -23 45 5 53 68 21 41 -21 133 -25 156 -7 8
6 37 11 65 11 49 0 50 1 80 49 27 44 31 57 28 113 l-2 63 45 0 c58 0 107 21
131 54 11 15 26 37 35 48 l16 22 28 -22 c32 -25 45 -21 110 39 23 22 47 39 53
39 6 0 15 -15 20 -32 10 -41 25 -42 32 -3 6 32 25 37 78 20 19 -6 22 -4 22 16
0 32 10 46 43 58 20 8 37 32 71 103 24 51 63 114 85 140 l41 46 -21 49 c-18
41 -22 45 -31 30 -7 -14 -13 -16 -24 -6 -8 6 -14 17 -14 24 0 7 -10 20 -22 28
-19 13 -20 16 -5 16 9 1 17 6 17 11 0 13 -57 13 -65 0 -4 -6 -17 -4 -35 5 -23
12 -30 23 -32 52 l-4 38 -13 -33 -13 -32 -42 22 c-24 14 -49 39 -61 61 -18 32
-18 39 -6 59 12 20 12 23 -5 33 -10 5 -46 35 -79 67 -33 31 -79 64 -102 73
-27 11 -50 30 -64 51 -14 23 -28 34 -44 34 -13 0 -27 5 -30 10 -4 7 -13 6 -26
-1 -27 -14 -72 -3 -97 24 -34 36 -127 321 -137 417 -3 36 -14 92 -24 125 -40
131 -44 161 -27 194 25 47 19 89 -24 196 -38 94 -39 99 -23 117 21 23 20 115
-2 199 -12 46 -12 55 0 69 13 14 12 18 -3 33 -16 17 -16 18 6 23 19 5 22 13
22 50 0 25 -9 70 -21 102 -13 36 -22 94 -26 157 -4 70 -12 112 -25 139 -15 29
-18 50 -14 78 4 21 2 47 -4 57 -7 14 -6 22 5 31 8 7 15 8 15 3 0 -5 20 -31 45
-57 48 -51 58 -74 25 -56 -25 13 -26 -1 -2 -23 27 -24 51 -21 58 8 8 32 -11
61 -94 144 -66 66 -128 154 -176 249 -40 80 -58 182 -54 317 l3 117 -42 44
c-24 24 -51 44 -61 44 -22 0 -55 24 -127 90 -27 25 -65 52 -83 59 -24 10 -35
22 -39 42 -4 19 -12 29 -23 29 -24 0 -67 51 -75 89 -3 17 -22 44 -41 60 -19
17 -34 35 -34 41 0 6 -8 9 -18 6 -28 -9 -169 21 -205 43 -48 30 -87 74 -102
117 -8 24 -20 40 -32 42 -20 3 -53 72 -53 112 0 14 -9 38 -19 53 l-18 29 -124
-118z"/>
</g>
</svg>
